# xmcd
#
# Track frame offsets:
#	150
#	17686
#	33740
#	62061
#	75883
#	99347
#	114452
#	127784
#	144586
#	157050
#	179755
#	191886
#	205601
#	219817
#	236133
#
# Disc length: 3323 seconds
#
# Revision: 1
# Processed by: cddbd v1.5.1PL0 Copyright (c) Steve Scherf et al.
# Submitted via: audiograbber 1.83.01
#
DISCID=ca0cf90f
DTITLE=VÁRIOS - FESTA DE VAQUEIRO
DYEAR=1900
DGENRE=
TTITLE0=CAVALEIROS DO FORRÓ - SE RÉI PRÁ LÁ
TTITLE1=JORGE DE ALTINHO - FAZENDA SANTO ANTÔNIO
TTITLE2=LUIZINHO DE IRAUÇUBA - CALOR DA VAQUEJADA
TTITLE3=AMAZAN - GALERA LINDA
TTITLE4=CLÁUDIO RIOS - EU E VOCÊ
TTITLE5=FORRÓ DA VAQUERAMA - MULHER VAQUEIRA
TTITLE6=KARAVEIA - DESTINO TRAÇOEIRO
TTITLE7=JUDIVAN MACEDO - REI DA ESTRADA
TTITLE8=SIRANO E SIRINO - E DEIXE OUTRO PARA MIM
TTITLE9=ZITO E ZETI - NASCI PRA SER VAQUEIRO
TTITLE10=JOÃO LOURENÇO - MULHER DE 15 A 40
TTITLE11=ALBERTO RIVER E FORROZÃO CENTROPÊ - NÃO TE QUERO MAIS
TTITLE12=DELMIRO BARROS - UM CAVALO ABANDONADO
TTITLE13=FORRÓ FEIJÃO COM ARROZ - PRISIONEIRO DO PRAZER
TTITLE14=FORRÓ SACODE - PAIXÃO DE BOIADEIRO
EXTD=
EXTT0=
EXTT1=
EXTT2=
EXTT3=
EXTT4=
EXTT5=
EXTT6=
EXTT7=
EXTT8=
EXTT9=
EXTT10=
EXTT11=
EXTT12=
EXTT13=
EXTT14=
PLAYORDER=
